{
	"asset":{
		"generator":"Khronos glTF Blender I/O v4.2.60",
		"version":"2.0"
	},
	"scene":0,
	"scenes":[
		{
			"name":"Scene",
			"nodes":[
				11
			]
		}
	],
	"nodes":[
		{
			"mesh":0,
			"name":"Object_5"
		},
		{
			"children":[
				0
			],
			"name":"body_3_0"
		},
		{
			"mesh":1,
			"name":"Object_7"
		},
		{
			"children":[
				2
			],
			"name":"shoes_l_Shape_1"
		},
		{
			"mesh":2,
			"name":"Object_9"
		},
		{
			"children":[
				4
			],
			"name":"shoes_r_Shape_2"
		},
		{
			"mesh":3,
			"name":"Object_11"
		},
		{
			"children":[
				6
			],
			"name":"tshirt_3"
		},
		{
			"children":[
				1,
				3,
				5,
				7
			],
			"name":"Default_4",
			"rotation":[
				0.70710688829422,
				0,
				0,
				0.7071066498756409
			],
			"scale":[
				0.0010000000474974513,
				0.0010000001639127731,
				0.0010000001639127731
			]
		},
		{
			"children":[
				8
			],
			"name":"GLTF_SceneRootNode",
			"rotation":[
				0.70710688829422,
				0,
				0,
				0.7071066498756409
			]
		},
		{
			"children":[
				9
			],
			"name":"root"
		},
		{
			"children":[
				10
			],
			"name":"Sketchfab_model",
			"rotation":[
				-0.70710688829422,
				0,
				0,
				0.7071066498756409
			]
		}
	],
	"materials":[
		{
			"doubleSided":true,
			"name":"Material.003",
			"pbrMetallicRoughness":{
				"baseColorFactor":[
					0.800000011920929,
					0.800000011920929,
					0.800000011920929,
					1
				],
				"metallicFactor":0,
				"roughnessFactor":0.20000000298023224
			}
		},
		{
			"doubleSided":true,
			"name":"material_0",
			"pbrMetallicRoughness":{
				"metallicFactor":0,
				"roughnessFactor":0.6000000238418579
			}
		},
		{
			"doubleSided":true,
			"name":"Material.004",
			"pbrMetallicRoughness":{
				"baseColorTexture":{
					"index":0
				},
				"metallicFactor":0
			}
		}
	],
	"meshes":[
		{
			"name":"Object_0",
			"primitives":[
				{
					"attributes":{
						"POSITION":0,
						"NORMAL":1
					},
					"indices":2,
					"material":0
				}
			]
		},
		{
			"name":"Object_1",
			"primitives":[
				{
					"attributes":{
						"POSITION":3,
						"NORMAL":4,
						"TEXCOORD_0":5
					},
					"indices":6,
					"material":1
				}
			]
		},
		{
			"name":"Object_2",
			"primitives":[
				{
					"attributes":{
						"POSITION":7,
						"NORMAL":8,
						"TEXCOORD_0":9
					},
					"indices":10,
					"material":1
				}
			]
		},
		{
			"name":"Object_3",
			"primitives":[
				{
					"attributes":{
						"POSITION":11,
						"NORMAL":12,
						"TEXCOORD_0":13
					},
					"indices":14,
					"material":2
				}
			]
		}
	],
	"textures":[
		{
			"sampler":0,
			"source":0
		}
	],
	"images":[
		{
			"mimeType":"image/png",
			"name":"Material.002_baseColor",
			"uri":"Material_002_baseColor.png"
		}
	],
	"accessors":[
		{
			"bufferView":0,
			"componentType":5126,
			"count":10576,
			"max":[
				289.68841552734375,
				188.1796875,
				-14.54024887084961
			],
			"min":[
				-299.1488037109375,
				-137.88389587402344,
				-1898.4375
			],
			"type":"VEC3"
		},
		{
			"bufferView":1,
			"componentType":5126,
			"count":10576,
			"type":"VEC3"
		},
		{
			"bufferView":2,
			"componentType":5123,
			"count":62526,
			"type":"SCALAR"
		},
		{
			"bufferView":3,
			"componentType":5126,
			"count":5146,
			"max":[
				185.92550659179688,
				206.9861602783203,
				-0.6084216833114624
			],
			"min":[
				50.074764251708984,
				-93.91371154785156,
				-130.18798828125
			],
			"type":"VEC3"
		},
		{
			"bufferView":4,
			"componentType":5126,
			"count":5146,
			"type":"VEC3"
		},
		{
			"bufferView":5,
			"componentType":5126,
			"count":5146,
			"type":"VEC2"
		},
		{
			"bufferView":6,
			"componentType":5123,
			"count":27444,
			"type":"SCALAR"
		},
		{
			"bufferView":7,
			"componentType":5126,
			"count":5128,
			"max":[
				-49.72277069091797,
				207.1353759765625,
				-0.6013072729110718
			],
			"min":[
				-186.2198028564453,
				-93.69651794433594,
				-130.13784790039062
			],
			"type":"VEC3"
		},
		{
			"bufferView":8,
			"componentType":5126,
			"count":5128,
			"type":"VEC3"
		},
		{
			"bufferView":9,
			"componentType":5126,
			"count":5128,
			"type":"VEC2"
		},
		{
			"bufferView":10,
			"componentType":5123,
			"count":27444,
			"type":"SCALAR"
		},
		{
			"bufferView":11,
			"componentType":5126,
			"count":18799,
			"max":[
				329.3695068359375,
				167.52316284179688,
				-49.73784637451172
			],
			"min":[
				-306.3199768066406,
				-175.76353454589844,
				-1633.0225830078125
			],
			"type":"VEC3"
		},
		{
			"bufferView":12,
			"componentType":5126,
			"count":18799,
			"type":"VEC3"
		},
		{
			"bufferView":13,
			"componentType":5126,
			"count":18799,
			"type":"VEC2"
		},
		{
			"bufferView":14,
			"componentType":5123,
			"count":108393,
			"type":"SCALAR"
		}
	],
	"bufferViews":[
		{
			"buffer":0,
			"byteLength":126912,
			"byteOffset":0,
			"target":34962
		},
		{
			"buffer":0,
			"byteLength":126912,
			"byteOffset":126912,
			"target":34962
		},
		{
			"buffer":0,
			"byteLength":125052,
			"byteOffset":253824,
			"target":34963
		},
		{
			"buffer":0,
			"byteLength":61752,
			"byteOffset":378876,
			"target":34962
		},
		{
			"buffer":0,
			"byteLength":61752,
			"byteOffset":440628,
			"target":34962
		},
		{
			"buffer":0,
			"byteLength":41168,
			"byteOffset":502380,
			"target":34962
		},
		{
			"buffer":0,
			"byteLength":54888,
			"byteOffset":543548,
			"target":34963
		},
		{
			"buffer":0,
			"byteLength":61536,
			"byteOffset":598436,
			"target":34962
		},
		{
			"buffer":0,
			"byteLength":61536,
			"byteOffset":659972,
			"target":34962
		},
		{
			"buffer":0,
			"byteLength":41024,
			"byteOffset":721508,
			"target":34962
		},
		{
			"buffer":0,
			"byteLength":54888,
			"byteOffset":762532,
			"target":34963
		},
		{
			"buffer":0,
			"byteLength":225588,
			"byteOffset":817420,
			"target":34962
		},
		{
			"buffer":0,
			"byteLength":225588,
			"byteOffset":1043008,
			"target":34962
		},
		{
			"buffer":0,
			"byteLength":150392,
			"byteOffset":1268596,
			"target":34962
		},
		{
			"buffer":0,
			"byteLength":216786,
			"byteOffset":1418988,
			"target":34963
		}
	],
	"samplers":[
		{
			"magFilter":9729,
			"minFilter":9987
		}
	],
	"buffers":[
		{
			"byteLength":1635776,
			"uri":"4.bin"
		}
	]
}
